<mxfile host="Electron" modified="2024-05-05T08:58:27.824Z" agent="Mozilla/5.0 (Windows NT 10.0; Win64; x64) AppleWebKit/537.36 (KHTML, like Gecko) draw.io/24.2.5 Chrome/120.0.6099.109 Electron/28.1.0 Safari/537.36" etag="YVx36f7njsUr4X2LeTct" version="24.2.5" type="device">
  <diagram name="Page-1" id="2YBvvXClWsGukQMizWep">
    <mxGraphModel dx="1106" dy="602" grid="1" gridSize="10" guides="1" tooltips="1" connect="1" arrows="1" fold="1" page="1" pageScale="1" pageWidth="850" pageHeight="1100" math="0" shadow="0">
      <root>
        <mxCell id="0" />
        <mxCell id="1" parent="0" />
        <mxCell id="aM9ryv3xv72pqoxQDRHE-1" value="Employee" style="shape=umlLifeline;perimeter=lifelinePerimeter;whiteSpace=wrap;html=1;container=0;dropTarget=0;collapsible=0;recursiveResize=0;outlineConnect=0;portConstraint=eastwest;newEdgeStyle={&quot;edgeStyle&quot;:&quot;elbowEdgeStyle&quot;,&quot;elbow&quot;:&quot;vertical&quot;,&quot;curved&quot;:0,&quot;rounded&quot;:0};" parent="1" vertex="1">
          <mxGeometry x="130" y="30" width="100" height="500" as="geometry" />
        </mxCell>
        <mxCell id="aM9ryv3xv72pqoxQDRHE-2" value="" style="html=1;points=[];perimeter=orthogonalPerimeter;outlineConnect=0;targetShapes=umlLifeline;portConstraint=eastwest;newEdgeStyle={&quot;edgeStyle&quot;:&quot;elbowEdgeStyle&quot;,&quot;elbow&quot;:&quot;vertical&quot;,&quot;curved&quot;:0,&quot;rounded&quot;:0};" parent="aM9ryv3xv72pqoxQDRHE-1" vertex="1">
          <mxGeometry x="45" y="70" width="10" height="430" as="geometry" />
        </mxCell>
        <mxCell id="aM9ryv3xv72pqoxQDRHE-3" value="Delete activities" style="html=1;verticalAlign=bottom;startArrow=oval;endArrow=block;startSize=8;edgeStyle=elbowEdgeStyle;elbow=vertical;curved=0;rounded=0;" parent="aM9ryv3xv72pqoxQDRHE-1" target="aM9ryv3xv72pqoxQDRHE-2" edge="1">
          <mxGeometry relative="1" as="geometry">
            <mxPoint x="-120" y="70" as="sourcePoint" />
            <mxPoint x="45" y="70.14" as="targetPoint" />
          </mxGeometry>
        </mxCell>
        <mxCell id="_ZHBYIbQKNobUMXnR3C7-9" value="" style="html=1;points=[[0,0,0,0,5],[0,1,0,0,-5],[1,0,0,0,5],[1,1,0,0,-5]];perimeter=orthogonalPerimeter;outlineConnect=0;targetShapes=umlLifeline;portConstraint=eastwest;newEdgeStyle={&quot;curved&quot;:0,&quot;rounded&quot;:0};" parent="aM9ryv3xv72pqoxQDRHE-1" vertex="1">
          <mxGeometry x="50" y="120" width="10" height="40" as="geometry" />
        </mxCell>
        <mxCell id="_ZHBYIbQKNobUMXnR3C7-10" value="select activity" style="html=1;align=left;spacingLeft=2;endArrow=block;rounded=0;edgeStyle=orthogonalEdgeStyle;curved=0;rounded=0;" parent="aM9ryv3xv72pqoxQDRHE-1" target="_ZHBYIbQKNobUMXnR3C7-9" edge="1">
          <mxGeometry relative="1" as="geometry">
            <mxPoint x="50" y="100" as="sourcePoint" />
            <Array as="points">
              <mxPoint x="80" y="130" />
            </Array>
          </mxGeometry>
        </mxCell>
        <mxCell id="PLMixNP9zVYm_wW4tpXz-5" value="Activity" style="shape=umlLifeline;perimeter=lifelinePerimeter;whiteSpace=wrap;html=1;container=0;dropTarget=0;collapsible=0;recursiveResize=0;outlineConnect=0;portConstraint=eastwest;newEdgeStyle={&quot;edgeStyle&quot;:&quot;elbowEdgeStyle&quot;,&quot;elbow&quot;:&quot;vertical&quot;,&quot;curved&quot;:0,&quot;rounded&quot;:0};" parent="1" vertex="1">
          <mxGeometry x="380" y="35" width="100" height="490" as="geometry" />
        </mxCell>
        <mxCell id="po1fF_pf0PQWuo3c21JC-8" value="" style="html=1;points=[[0,0,0,0,5],[0,1,0,0,-5],[1,0,0,0,5],[1,1,0,0,-5]];perimeter=orthogonalPerimeter;outlineConnect=0;targetShapes=umlLifeline;portConstraint=eastwest;newEdgeStyle={&quot;curved&quot;:0,&quot;rounded&quot;:0};" parent="PLMixNP9zVYm_wW4tpXz-5" vertex="1">
          <mxGeometry x="45" y="260" width="10" height="80" as="geometry" />
        </mxCell>
        <mxCell id="po1fF_pf0PQWuo3c21JC-9" value="activity.deleteActivity(activity)" style="html=1;verticalAlign=bottom;startArrow=oval;endArrow=block;startSize=8;curved=0;rounded=0;entryX=0;entryY=0;entryDx=0;entryDy=5;" parent="1" target="po1fF_pf0PQWuo3c21JC-8" edge="1" source="aM9ryv3xv72pqoxQDRHE-2">
          <mxGeometry relative="1" as="geometry">
            <mxPoint x="115" y="300" as="sourcePoint" />
          </mxGeometry>
        </mxCell>
        <mxCell id="iBUcgGEMnmGOs5kJtC8e-3" value="Project" style="shape=umlLifeline;perimeter=lifelinePerimeter;whiteSpace=wrap;html=1;container=0;dropTarget=0;collapsible=0;recursiveResize=0;outlineConnect=0;portConstraint=eastwest;newEdgeStyle={&quot;edgeStyle&quot;:&quot;elbowEdgeStyle&quot;,&quot;elbow&quot;:&quot;vertical&quot;,&quot;curved&quot;:0,&quot;rounded&quot;:0};" vertex="1" parent="1">
          <mxGeometry x="610" y="30" width="100" height="490" as="geometry" />
        </mxCell>
        <mxCell id="iBUcgGEMnmGOs5kJtC8e-5" value="" style="html=1;points=[[0,0,0,0,5],[0,1,0,0,-5],[1,0,0,0,5],[1,1,0,0,-5]];perimeter=orthogonalPerimeter;outlineConnect=0;targetShapes=umlLifeline;portConstraint=eastwest;newEdgeStyle={&quot;curved&quot;:0,&quot;rounded&quot;:0};" vertex="1" parent="iBUcgGEMnmGOs5kJtC8e-3">
          <mxGeometry x="45" y="270" width="10" height="80" as="geometry" />
        </mxCell>
        <mxCell id="iBUcgGEMnmGOs5kJtC8e-6" value="assignedproject.removeActivity(this)" style="html=1;verticalAlign=bottom;startArrow=oval;endArrow=block;startSize=8;curved=0;rounded=0;" edge="1" target="iBUcgGEMnmGOs5kJtC8e-5" parent="1">
          <mxGeometry relative="1" as="geometry">
            <mxPoint x="440" y="320" as="sourcePoint" />
            <mxPoint x="640" y="320" as="targetPoint" />
          </mxGeometry>
        </mxCell>
        <mxCell id="iBUcgGEMnmGOs5kJtC8e-7" value="return" style="html=1;verticalAlign=bottom;endArrow=open;dashed=1;endSize=8;curved=0;rounded=0;" edge="1" parent="1" source="iBUcgGEMnmGOs5kJtC8e-5" target="po1fF_pf0PQWuo3c21JC-8">
          <mxGeometry relative="1" as="geometry">
            <mxPoint x="260" y="320" as="sourcePoint" />
            <mxPoint x="180" y="320" as="targetPoint" />
          </mxGeometry>
        </mxCell>
        <mxCell id="iBUcgGEMnmGOs5kJtC8e-8" value="return" style="html=1;verticalAlign=bottom;endArrow=open;dashed=1;endSize=8;curved=0;rounded=0;" edge="1" parent="1">
          <mxGeometry relative="1" as="geometry">
            <mxPoint x="425" y="350" as="sourcePoint" />
            <mxPoint x="185" y="350" as="targetPoint" />
          </mxGeometry>
        </mxCell>
        <mxCell id="iBUcgGEMnmGOs5kJtC8e-9" value="alt" style="shape=umlFrame;whiteSpace=wrap;html=1;pointerEvents=0;" vertex="1" parent="1">
          <mxGeometry x="450" y="240" width="250" height="200" as="geometry" />
        </mxCell>
        <mxCell id="iBUcgGEMnmGOs5kJtC8e-10" value="[Activity instanceOf ProjectActivity]" style="text;html=1;align=center;verticalAlign=middle;resizable=0;points=[];autosize=1;strokeColor=none;fillColor=none;" vertex="1" parent="1">
          <mxGeometry x="440" y="265" width="210" height="30" as="geometry" />
        </mxCell>
      </root>
    </mxGraphModel>
  </diagram>
</mxfile>
